<svg width="21" height="20" viewBox="0 0 21 20" fill="none" xmlns="http://www.w3.org/2000/svg">
<rect x="0.929932" width="20" height="20" rx="10" fill="#F36223"/>
<path d="M10.4541 15.1392C9.77131 15.1392 9.16147 15.0215 8.62453 14.7862C8.09092 14.5509 7.66833 14.2244 7.35678 13.8068C7.04854 13.3859 6.88282 12.8987 6.85962 12.3452H8.4207C8.44059 12.6468 8.54167 12.9086 8.72397 13.1307C8.90957 13.3494 9.15152 13.5185 9.44982 13.6378C9.74811 13.7571 10.0796 13.8168 10.4441 13.8168C10.8452 13.8168 11.1998 13.7472 11.5081 13.608C11.8196 13.4687 12.0632 13.2749 12.2389 13.0263C12.4145 12.7744 12.5024 12.4844 12.5024 12.1562C12.5024 11.8149 12.4145 11.5149 12.2389 11.2564C12.0665 10.9946 11.813 10.7891 11.4782 10.6399C11.1468 10.4908 10.7457 10.4162 10.2751 10.4162H9.41502V9.16335H10.2751C10.6529 9.16335 10.9844 9.09541 11.2694 8.95952C11.5578 8.82363 11.7832 8.63471 11.9456 8.39276C12.108 8.14749 12.1892 7.8608 12.1892 7.53267C12.1892 7.2178 12.1179 6.94437 11.9754 6.71236C11.8362 6.47704 11.6373 6.29309 11.3788 6.16051C11.1236 6.02794 10.822 5.96165 10.474 5.96165C10.1425 5.96165 9.83263 6.02296 9.54428 6.1456C9.25924 6.26491 9.02723 6.43726 8.84826 6.66264C8.66928 6.88471 8.57316 7.15151 8.5599 7.46307H7.0734C7.08997 6.91288 7.25237 6.42898 7.56061 6.01136C7.87217 5.59375 8.28315 5.26728 8.79357 5.03196C9.30398 4.79664 9.87075 4.67898 10.4939 4.67898C11.1468 4.67898 11.7102 4.80658 12.1842 5.06179C12.6615 5.31368 13.0294 5.65009 13.2879 6.07102C13.5497 6.49195 13.679 6.95265 13.6757 7.45312C13.679 8.0232 13.5199 8.5071 13.1984 8.90483C12.8802 9.30256 12.456 9.56937 11.9257 9.70526V9.7848C12.6018 9.88755 13.1255 10.156 13.4967 10.5902C13.8712 11.0244 14.0568 11.563 14.0535 12.206C14.0568 12.7661 13.901 13.2682 13.5862 13.7124C13.2746 14.1565 12.8487 14.5062 12.3085 14.7614C11.7682 15.0133 11.1501 15.1392 10.4541 15.1392Z" fill="white"/>
</svg>
